<svg xmlns="http://www.w3.org/2000/svg" xmlns:xlink="http://www.w3.org/1999/xlink" width="500" zoomAndPan="magnify" viewBox="0 0 375 374.999991" height="500" preserveAspectRatio="xMidYMid meet" version="1.0"><defs><g/><clipPath id="07958d9951"><path d="M 119.148438 78 L 232 78 L 232 222.859375 L 119.148438 222.859375 Z M 119.148438 78 " clip-rule="nonzero"/></clipPath></defs><g clip-path="url(#07958d9951)"><path fill="#00fefb" d="M 231.25 152.070312 C 230.832031 153.019531 230.414062 153.964844 229.996094 154.910156 C 228.546875 155.046875 226.890625 155.21875 225.324219 155.441406 C 221.210938 156.011719 216.042969 157.667969 205.761719 162.464844 C 195.484375 167.261719 186.746094 178.398438 179.808594 188.507812 C 172.867188 198.613281 166.015625 221.144531 160.445312 222 C 154.878906 222.859375 150.339844 213.949219 148.195312 210.351562 C 146.054688 206.753906 140.742188 195.53125 138.34375 189.878906 C 135.945312 184.222656 128.863281 164.0625 125.09375 150.8125 C 121.324219 137.5625 119.84375 124.769531 119.5 108.210938 C 119.15625 91.648438 128.292969 82.511719 136.058594 79.425781 C 136.164062 79.386719 136.265625 79.347656 136.375 79.3125 C 140.394531 77.910156 147.414062 78.980469 155.636719 82.160156 C 163.738281 85.296875 173.007812 90.476562 181.722656 97.359375 C 181.722656 97.359375 166.699219 90.503906 156.25 90.761719 C 145.796875 91.019531 138.515625 96.84375 134.746094 104.382812 C 130.976562 111.921875 130.121094 127.511719 131.492188 140.191406 C 132.863281 152.867188 138.34375 172.402344 141.773438 183.023438 C 145.199219 193.644531 151.28125 203.328125 155.136719 205.898438 C 158.992188 208.464844 161.304688 204.613281 166.328125 193.757812 C 171.355469 182.910156 184.488281 170.574219 191.117188 165.203125 C 197.246094 160.238281 216.625 153.265625 231.25 152.070312 " fill-opacity="1" fill-rule="nonzero"/></g><path fill="#00fefb" d="M 135.601562 77.253906 C 141.199219 74.859375 154.675781 76 167.585938 83.308594 C 180.492188 90.621094 191.113281 96.902344 203.90625 93.359375 C 216.699219 89.820312 231.777344 85.023438 241.027344 90.046875 C 250.28125 95.074219 250.164062 108.550781 246.511719 122.257812 C 242.855469 135.964844 228.007812 170.6875 220.46875 181.539062 C 212.929688 192.390625 210.53125 196.84375 210.53125 196.84375 C 259.988281 146.128906 265.128906 105.238281 263.242188 97.359375 C 261.359375 89.476562 259.191406 86.394531 255.304688 83.878906 C 251.421875 81.367188 241.484375 76.34375 227.777344 80.226562 C 214.074219 84.109375 208.816406 86.851562 205.164062 88.105469 C 201.507812 89.363281 192.199219 90.164062 187.171875 88.792969 C 182.148438 87.421875 165.527344 77.027344 156.503906 75.3125 C 143.054688 72.859375 135.601562 77.253906 135.601562 77.253906 " fill-opacity="1" fill-rule="nonzero"/><g fill="#00fefb" fill-opacity="1"><g transform="translate(91.84708, 268.700128)"><g><path d="M 18.109375 -32.125 C 20.472656 -32.125 22.800781 -31.640625 25.09375 -30.671875 C 27.382812 -29.703125 29.332031 -28.394531 30.9375 -26.75 L 26.25 -21.203125 C 25.21875 -22.472656 23.984375 -23.476562 22.546875 -24.21875 C 21.109375 -24.96875 19.675781 -25.34375 18.25 -25.34375 C 15.726562 -25.34375 13.617188 -24.453125 11.921875 -22.671875 C 10.222656 -20.898438 9.375 -18.710938 9.375 -16.109375 C 9.375 -13.441406 10.222656 -11.210938 11.921875 -9.421875 C 13.617188 -7.628906 15.726562 -6.734375 18.25 -6.734375 C 19.582031 -6.734375 20.96875 -7.066406 22.40625 -7.734375 C 23.84375 -8.398438 25.125 -9.3125 26.25 -10.46875 L 30.984375 -5.453125 C 29.253906 -3.703125 27.210938 -2.296875 24.859375 -1.234375 C 22.515625 -0.171875 20.175781 0.359375 17.84375 0.359375 C 13.039062 0.359375 9.046875 -1.203125 5.859375 -4.328125 C 2.679688 -7.453125 1.09375 -11.347656 1.09375 -16.015625 C 1.09375 -20.597656 2.710938 -24.425781 5.953125 -27.5 C 9.203125 -30.582031 13.253906 -32.125 18.109375 -32.125 Z M 18.109375 -32.125 "/></g></g></g><g fill="#00fefb" fill-opacity="1"><g transform="translate(123.333416, 268.700128)"><g><path d="M 28.125 -25.484375 L 11.28125 -25.484375 L 11.28125 -19.15625 L 26.484375 -19.15625 L 26.484375 -12.78125 L 11.28125 -12.78125 L 11.28125 -6.375 L 28.625 -6.375 L 28.625 0 L 3.1875 0 L 3.1875 -31.84375 L 28.125 -31.84375 Z M 28.125 -25.484375 "/></g></g></g><g fill="#00fefb" fill-opacity="1"><g transform="translate(154.000744, 268.700128)"><g><path d="M 3.1875 -31.84375 L 16.875 -31.84375 C 21.882812 -31.84375 25.957031 -30.367188 29.09375 -27.421875 C 32.238281 -24.484375 33.8125 -20.648438 33.8125 -15.921875 C 33.8125 -11.222656 32.21875 -7.394531 29.03125 -4.4375 C 25.84375 -1.476562 21.6875 0 16.5625 0 L 3.1875 0 Z M 11.28125 -25.390625 L 11.28125 -6.46875 L 17.0625 -6.46875 C 19.550781 -6.46875 21.59375 -7.335938 23.1875 -9.078125 C 24.78125 -10.816406 25.578125 -13.082031 25.578125 -15.875 C 25.578125 -18.664062 24.738281 -20.945312 23.0625 -22.71875 C 21.394531 -24.5 19.273438 -25.390625 16.703125 -25.390625 Z M 11.28125 -25.390625 "/></g></g></g><g fill="#00fefb" fill-opacity="1"><g transform="translate(188.89962, 268.700128)"><g><path d="M 28.125 -25.484375 L 11.28125 -25.484375 L 11.28125 -19.15625 L 26.484375 -19.15625 L 26.484375 -12.78125 L 11.28125 -12.78125 L 11.28125 -6.375 L 28.625 -6.375 L 28.625 0 L 3.1875 0 L 3.1875 -31.84375 L 28.125 -31.84375 Z M 28.125 -25.484375 "/></g></g></g><g fill="#00fefb" fill-opacity="1"><g transform="translate(219.566949, 268.700128)"><g><path d="M 32.578125 0 L 25.4375 0 L 10.78125 -19.609375 L 10.78125 0 L 3.1875 0 L 3.1875 -31.84375 L 10.328125 -31.84375 L 25.03125 -12.1875 L 25.03125 -31.84375 L 32.578125 -31.84375 Z M 32.578125 0 "/></g></g></g><g fill="#00fefb" fill-opacity="1"><g transform="translate(255.330332, 268.700128)"><g><path d="M 27.53125 -25.34375 L 17.921875 -25.34375 L 17.921875 0 L 9.828125 0 L 9.828125 -25.34375 L 0.3125 -25.34375 L 0.3125 -31.890625 L 27.53125 -31.890625 Z M 27.53125 -25.34375 "/></g></g></g><g fill="#000000" fill-opacity="1"><g transform="translate(98.31724, 295.604509)"><g><path d="M 6.3125 -13.828125 C 8.09375 -13.828125 9.695312 -13.351562 11.125 -12.40625 L 10.15625 -10.375 C 8.757812 -11.21875 7.421875 -11.640625 6.140625 -11.640625 C 5.441406 -11.640625 4.894531 -11.515625 4.5 -11.265625 C 4.101562 -11.023438 3.90625 -10.675781 3.90625 -10.21875 C 3.90625 -9.757812 4.085938 -9.367188 4.453125 -9.046875 C 4.816406 -8.722656 5.269531 -8.488281 5.8125 -8.34375 C 6.363281 -8.195312 6.957031 -8.007812 7.59375 -7.78125 C 8.238281 -7.550781 8.835938 -7.304688 9.390625 -7.046875 C 9.941406 -6.796875 10.394531 -6.398438 10.75 -5.859375 C 11.113281 -5.316406 11.296875 -4.65625 11.296875 -3.875 C 11.296875 -2.675781 10.8125 -1.71875 9.84375 -1 C 8.882812 -0.28125 7.644531 0.078125 6.125 0.078125 C 5.070312 0.078125 4.054688 -0.113281 3.078125 -0.5 C 2.097656 -0.894531 1.242188 -1.425781 0.515625 -2.09375 L 1.515625 -4.09375 C 2.203125 -3.457031 2.960938 -2.960938 3.796875 -2.609375 C 4.628906 -2.265625 5.414062 -2.09375 6.15625 -2.09375 C 6.96875 -2.09375 7.597656 -2.238281 8.046875 -2.53125 C 8.492188 -2.832031 8.71875 -3.242188 8.71875 -3.765625 C 8.71875 -4.234375 8.535156 -4.628906 8.171875 -4.953125 C 7.804688 -5.273438 7.347656 -5.507812 6.796875 -5.65625 C 6.253906 -5.8125 5.660156 -5.992188 5.015625 -6.203125 C 4.378906 -6.421875 3.785156 -6.648438 3.234375 -6.890625 C 2.679688 -7.128906 2.222656 -7.515625 1.859375 -8.046875 C 1.492188 -8.585938 1.3125 -9.238281 1.3125 -10 C 1.3125 -11.164062 1.769531 -12.09375 2.6875 -12.78125 C 3.601562 -13.476562 4.8125 -13.828125 6.3125 -13.828125 Z M 6.3125 -13.828125 "/></g></g></g><g fill="#000000" fill-opacity="1"><g transform="translate(118.110952, 295.604509)"><g><path d="M 10.671875 -3.09375 L 3.75 -3.09375 L 2.4375 0 L 0.015625 0 L 6.078125 -13.734375 L 8.453125 -13.734375 L 14.453125 0 L 11.984375 0 Z M 9.78125 -5.15625 L 7.203125 -11.25 L 4.609375 -5.15625 Z M 9.78125 -5.15625 "/></g></g></g><g fill="#000000" fill-opacity="1"><g transform="translate(140.179957, 295.604509)"><g><path d="M 13.703125 0 L 11.4375 0 L 4.125 -9.84375 L 4.125 0 L 1.796875 0 L 1.796875 -13.734375 L 4.078125 -13.734375 L 11.4375 -3.859375 L 11.4375 -13.734375 L 13.703125 -13.734375 Z M 13.703125 0 "/></g></g></g><g fill="#000000" fill-opacity="1"><g transform="translate(163.30815, 295.604509)"><g><path d="M 11.171875 -11.640625 L 6.828125 -11.640625 L 6.828125 0 L 4.515625 0 L 4.515625 -11.640625 L 0.171875 -11.640625 L 0.171875 -13.734375 L 11.171875 -13.734375 Z M 11.171875 -11.640625 "/></g></g></g><g fill="#000000" fill-opacity="1"><g transform="translate(182.258423, 295.604509)"><g><path d="M 10.671875 -3.09375 L 3.75 -3.09375 L 2.4375 0 L 0.015625 0 L 6.078125 -13.734375 L 8.453125 -13.734375 L 14.453125 0 L 11.984375 0 Z M 9.78125 -5.15625 L 7.203125 -11.25 L 4.609375 -5.15625 Z M 9.78125 -5.15625 "/></g></g></g><g fill="#000000" fill-opacity="1"><g transform="translate(204.327424, 295.604509)"><g/></g></g><g fill="#000000" fill-opacity="1"><g transform="translate(216.981411, 295.604509)"><g><path d="M 10.671875 -3.09375 L 3.75 -3.09375 L 2.4375 0 L 0.015625 0 L 6.078125 -13.734375 L 8.453125 -13.734375 L 14.453125 0 L 11.984375 0 Z M 9.78125 -5.15625 L 7.203125 -11.25 L 4.609375 -5.15625 Z M 9.78125 -5.15625 "/></g></g></g><g fill="#000000" fill-opacity="1"><g transform="translate(239.050412, 295.604509)"><g><path d="M 13.703125 0 L 11.4375 0 L 4.125 -9.84375 L 4.125 0 L 1.796875 0 L 1.796875 -13.734375 L 4.078125 -13.734375 L 11.4375 -3.859375 L 11.4375 -13.734375 L 13.703125 -13.734375 Z M 13.703125 0 "/></g></g></g><g fill="#000000" fill-opacity="1"><g transform="translate(262.1786, 295.604509)"><g><path d="M 10.671875 -3.09375 L 3.75 -3.09375 L 2.4375 0 L 0.015625 0 L 6.078125 -13.734375 L 8.453125 -13.734375 L 14.453125 0 L 11.984375 0 Z M 9.78125 -5.15625 L 7.203125 -11.25 L 4.609375 -5.15625 Z M 9.78125 -5.15625 "/></g></g></g></svg>